<svg aria-hidden="true" style="position: absolute; width: 0; height: 0; overflow: hidden;" version="1.1" xmlns="http://www.w3.org/2000/svg" xmlns:xlink="http://www.w3.org/1999/xlink">
<defs>
<symbol id="icon-heart" viewBox="0 0 32 32">
<path fill='#FFFFFF' stroke='#101828' stroke-linejoin="round" stroke-linecap="round" stroke-miterlimit="4" stroke-width="3.0667" d="M27.787 6.147c-0.681-0.681-1.49-1.222-2.379-1.591s-1.844-0.559-2.807-0.559-1.917 0.19-2.807 0.559c-0.89 0.369-1.699 0.909-2.38 1.591l-1.413 1.413-1.413-1.413c-1.376-1.376-3.241-2.148-5.187-2.148s-3.811 0.773-5.187 2.148c-1.376 1.376-2.148 3.241-2.148 5.187s0.773 3.811 2.148 5.187l11.787 11.787 11.787-11.787c0.681-0.681 1.222-1.49 1.591-2.38s0.559-1.844 0.559-2.807-0.19-1.917-0.559-2.807c-0.369-0.89-0.909-1.699-1.591-2.38z"></path>
</symbol>
<symbol id="icon-star" viewBox="0 0 32 32">
<path fill='#FFC531' stroke='#101828' stroke-linejoin="miter" stroke-linecap="butt" stroke-miterlimit="4" stroke-width="2.4" d="M12.4 9.394l3.6-6.822 3.6 6.822c0.318 0.603 0.899 1.025 1.571 1.141l7.601 1.315-5.376 5.532c-0.475 0.489-0.697 1.171-0.6 1.846l1.098 7.635-6.922-3.404c-0.612-0.301-1.329-0.301-1.941 0l-6.922 3.404 1.098-7.635c0.097-0.675-0.125-1.357-0.6-1.846l-5.376-5.532 7.601-1.315c0.672-0.116 1.252-0.538 1.571-1.141zM29.035 11.579v0zM7.767 27.031c0 0 0 0 0 0h-0z"></path>
</symbol>
<symbol id="icon-like" viewBox="0 0 35 32">
<path stroke-linejoin="round" stroke-linecap="round" stroke-miterlimit="4" stroke-width="3.3455" d="M30.313 5.251c-0.743-0.743-1.625-1.333-2.596-1.735s-2.011-0.609-3.062-0.609-2.091 0.207-3.062 0.609c-0.971 0.402-1.853 0.992-2.596 1.735l-1.542 1.542-1.542-1.542c-1.501-1.501-3.536-2.344-5.658-2.344s-4.158 0.843-5.658 2.344c-1.501 1.501-2.344 3.536-2.344 5.658s0.843 4.158 2.344 5.658l12.858 12.858 12.858-12.858c0.743-0.743 1.333-1.625 1.735-2.596s0.609-2.011 0.609-3.062-0.207-2.091-0.609-3.062c-0.402-0.971-0.992-1.853-1.735-2.596z"></path>
</symbol>
<symbol id="icon-trash-bucket" viewBox="0 0 32 32">
<path d="M29.241 3.862h-4.966v-2.759c0-0.309-0.243-0.552-0.552-0.552h-15.448c-0.309 0-0.552 0.243-0.552 0.552v2.759h-4.966c-1.523 0-2.759 1.236-2.759 2.759s1.236 2.759 2.759 2.759h0.607l2.152 19.377c0.177 1.589 1.313 2.692 2.759 2.692h15.448c1.446 0 2.582-1.114 2.759-2.692l2.152-19.377h0.607c1.523 0 2.759-1.236 2.759-2.759s-1.236-2.759-2.759-2.759zM8.828 1.655h14.345v2.207h-14.345v-2.207zM25.379 28.623c-0.088 0.828-0.651 1.721-1.655 1.721h-15.448c-1.004 0-1.567-0.894-1.655-1.721l-2.141-19.244h23.040l-2.141 19.244zM29.241 8.276h-26.483c-0.916 0-1.655-0.739-1.655-1.655s0.739-1.655 1.655-1.655h26.483c0.916 0 1.655 0.739 1.655 1.655s-0.739 1.655-1.655 1.655z"></path>
<path d="M10.483 28.966c0.154 0 0.276-0.121 0.276-0.276v-16.552c0-0.154-0.121-0.276-0.276-0.276s-0.276 0.121-0.276 0.276v16.552c0 0.154 0.121 0.276 0.276 0.276z"></path>
<path d="M21.517 28.966c0.154 0 0.276-0.121 0.276-0.276v-16.552c0-0.154-0.121-0.276-0.276-0.276s-0.276 0.121-0.276 0.276v16.552c0 0.154 0.121 0.276 0.276 0.276z"></path>
<path d="M16 28.966c0.154 0 0.276-0.121 0.276-0.276v-16.552c0-0.154-0.121-0.276-0.276-0.276s-0.276 0.121-0.276 0.276v16.552c0 0.154 0.121 0.276 0.276 0.276z"></path>
<path d="M2.979 5.462c-0.761 0-1.379 0.618-1.379 1.379 0 0.154 0.121 0.276 0.276 0.276s0.276-0.121 0.276-0.276c0-0.452 0.375-0.828 0.828-0.828 0.154 0 0.276-0.121 0.276-0.276s-0.121-0.276-0.276-0.276z"></path>
<path d="M30.124 6.124c-0.154 0-0.276 0.121-0.276 0.276 0 0.452-0.375 0.828-0.828 0.828-0.154 0-0.276 0.121-0.276 0.276s0.121 0.276 0.276 0.276c0.761 0 1.379-0.618 1.379-1.379 0-0.154-0.121-0.276-0.276-0.276z"></path>
</symbol>
<symbol id="icon-heart-red" viewBox="0 0 32 32">
<path fill="#e44848" style="fill: var(--color1, #e44848); stroke: var(--color1, #e44848)" stroke="#e44848" stroke-linejoin="round" stroke-linecap="round" stroke-miterlimit="4" stroke-width="3.0667" d="M27.787 6.147c-0.681-0.681-1.49-1.222-2.379-1.591s-1.844-0.559-2.807-0.559-1.917 0.19-2.807 0.559c-0.89 0.369-1.699 0.909-2.38 1.591l-1.413 1.413-1.413-1.413c-1.376-1.376-3.241-2.148-5.187-2.148s-3.811 0.773-5.187 2.148c-1.376 1.376-2.148 3.241-2.148 5.187s0.773 3.811 2.148 5.187l11.787 11.787 11.787-11.787c0.681-0.681 1.222-1.49 1.591-2.38s0.559-1.844 0.559-2.807-0.19-1.917-0.559-2.807c-0.369-0.89-0.909-1.699-1.591-2.38z"></path>
</symbol>
</defs>
</svg>
