<svg aria-hidden="true" style="position: absolute; width: 0; height: 0; overflow: hidden;" version="1.1" xmlns="http://www.w3.org/2000/svg" xmlns:xlink="http://www.w3.org/1999/xlink">
<defs>
<symbol id="icon-heart" viewBox="0 0 32 32">
<path fill='#FFFFFF' stroke='#101828' stroke-linejoin="round" stroke-linecap="round" stroke-miterlimit="4" stroke-width="3.0667" d="M27.787 6.147c-0.681-0.681-1.49-1.222-2.379-1.591s-1.844-0.559-2.807-0.559-1.917 0.19-2.807 0.559c-0.89 0.369-1.699 0.909-2.38 1.591l-1.413 1.413-1.413-1.413c-1.376-1.376-3.241-2.148-5.187-2.148s-3.811 0.773-5.187 2.148c-1.376 1.376-2.148 3.241-2.148 5.187s0.773 3.811 2.148 5.187l11.787 11.787 11.787-11.787c0.681-0.681 1.222-1.49 1.591-2.38s0.559-1.844 0.559-2.807-0.19-1.917-0.559-2.807c-0.369-0.89-0.909-1.699-1.591-2.38z"></path>
</symbol>
<symbol id="icon-heart-liked" viewBox="0 0 32 32">
<path fill='#f50c0c' stroke='#101828' stroke-linejoin="round" stroke-linecap="round" stroke-miterlimit="4" stroke-width="3.0667" d="M27.787 6.147c-0.681-0.681-1.49-1.222-2.379-1.591s-1.844-0.559-2.807-0.559-1.917 0.19-2.807 0.559c-0.89 0.369-1.699 0.909-2.38 1.591l-1.413 1.413-1.413-1.413c-1.376-1.376-3.241-2.148-5.187-2.148s-3.811 0.773-5.187 2.148c-1.376 1.376-2.148 3.241-2.148 5.187s0.773 3.811 2.148 5.187l11.787 11.787 11.787-11.787c0.681-0.681 1.222-1.49 1.591-2.38s0.559-1.844 0.559-2.807-0.19-1.917-0.559-2.807c-0.369-0.89-0.909-1.699-1.591-2.38z"></path>
</symbol>
<symbol id="icon-star" viewBox="0 0 32 32">
<path fill='#FFC531' stroke='#101828' stroke-linejoin="miter" stroke-linecap="butt" stroke-miterlimit="4" stroke-width="2.4" d="M12.4 9.394l3.6-6.822 3.6 6.822c0.318 0.603 0.899 1.025 1.571 1.141l7.601 1.315-5.376 5.532c-0.475 0.489-0.697 1.171-0.6 1.846l1.098 7.635-6.922-3.404c-0.612-0.301-1.329-0.301-1.941 0l-6.922 3.404 1.098-7.635c0.097-0.675-0.125-1.357-0.6-1.846l-5.376-5.532 7.601-1.315c0.672-0.116 1.252-0.538 1.571-1.141zM29.035 11.579v0zM7.767 27.031c0 0 0 0 0 0h-0z"></path>
</symbol>
<symbol id="icon-star-grey" viewBox="0 0 32 32">
<path fill='#F2F4F7' stroke='#101828' stroke-linejoin="miter" stroke-linecap="butt" stroke-miterlimit="4" stroke-width="2.4" d="M12.4 9.394l3.6-6.822 3.6 6.822c0.318 0.603 0.899 1.025 1.571 1.141l7.601 1.315-5.376 5.532c-0.475 0.489-0.697 1.171-0.6 1.846l1.098 7.635-6.922-3.404c-0.612-0.301-1.329-0.301-1.941 0l-6.922 3.404 1.098-7.635c0.097-0.675-0.125-1.357-0.6-1.846l-5.376-5.532 7.601-1.315c0.672-0.116 1.252-0.538 1.571-1.141zM29.035 11.579v0zM7.767 27.031c0 0 0 0 0 0h-0z"></path>
</symbol>
<symbol id="icon-watch-later" viewBox="0 0 32 32">
<path d="M22.459 1.363c0.033 0.265 0.052 0.534 0.052 0.807 0 1.302-0.386 2.515-1.046 3.533 3.682 1.962 6.194 5.841 6.194 10.296 0 6.429-5.23 11.659-11.659 11.659s-11.659-5.23-11.659-11.659c0-1.165 0.172-2.291 0.492-3.354l-3.144-3.793c-1.080 2.152-1.689 4.579-1.689 7.147 0 8.822 7.178 16 16 16s16-7.178 16-16c-0-6.525-3.927-12.149-9.541-14.636z"></path>
<path d="M12.3 16c0 2.043 1.656 3.7 3.7 3.7s3.7-1.656 3.7-3.7-1.656-3.7-3.7-3.7c-0.077 0-0.153 0.003-0.229 0.008l-8.353-10.143-3.351 2.759 8.352 10.142c-0.077 0.298-0.119 0.611-0.119 0.934z"></path>
<path d="M18.17 2.17c0 1.199-0.972 2.17-2.17 2.17s-2.17-0.972-2.17-2.17c0-1.199 0.972-2.17 2.17-2.17s2.17 0.972 2.17 2.17z"></path>
</symbol>
<symbol id="icon-watch-later-added" viewBox="0 0 32 32">
<path fill='#48c411' d="M22.459 1.363c0.033 0.265 0.052 0.534 0.052 0.807 0 1.302-0.386 2.515-1.046 3.533 3.682 1.962 6.194 5.841 6.194 10.296 0 6.429-5.23 11.659-11.659 11.659s-11.659-5.23-11.659-11.659c0-1.165 0.172-2.291 0.492-3.354l-3.144-3.793c-1.080 2.152-1.689 4.579-1.689 7.147 0 8.822 7.178 16 16 16s16-7.178 16-16c-0-6.525-3.927-12.149-9.541-14.636z"></path>
<path fill='#48c411' d="M12.3 16c0 2.043 1.656 3.7 3.7 3.7s3.7-1.656 3.7-3.7-1.656-3.7-3.7-3.7c-0.077 0-0.153 0.003-0.229 0.008l-8.353-10.143-3.351 2.759 8.352 10.142c-0.077 0.298-0.119 0.611-0.119 0.934z"></path>
<path fill='#48c411' d="M18.17 2.17c0 1.199-0.972 2.17-2.17 2.17s-2.17-0.972-2.17-2.17c0-1.199 0.972-2.17 2.17-2.17s2.17 0.972 2.17 2.17z"></path>
</symbol>
<symbol id="icon-add-to-list" viewBox="0 0 32 32">
<path fill="#1c274c" style="fill: var(--color1, #1c274c)" d="M17 12c0-0.552-0.448-1-1-1s-1 0.448-1 1v3h-3c-0.552 0-1 0.448-1 1s0.448 1 1 1h3v3c0 0.552 0.448 1 1 1s1-0.448 1-1v-3h3c0.552 0 1-0.448 1-1s-0.448-1-1-1h-3v-3z"></path>
<path fill="#1c274c" style="fill: var(--color1, #1c274c)" d="M16.077 1.667h-0.153c-3.078 0-5.49-0-7.372 0.253-1.926 0.259-3.446 0.799-4.639 1.993s-1.734 2.713-1.993 4.639c-0.253 1.882-0.253 4.294-0.253 7.372v0.153c0 3.078-0 5.49 0.253 7.372 0.259 1.926 0.799 3.446 1.993 4.639s2.713 1.733 4.639 1.993c1.882 0.253 4.294 0.253 7.372 0.253h0.153c3.078 0 5.49 0 7.372-0.253 1.926-0.259 3.446-0.799 4.639-1.993s1.733-2.713 1.993-4.639c0.253-1.882 0.253-4.294 0.253-7.372v-0.153c0-3.078 0-5.49-0.253-7.372-0.259-1.926-0.799-3.446-1.993-4.639s-2.713-1.734-4.639-1.993c-1.882-0.253-4.294-0.253-7.372-0.253zM5.326 5.326c0.76-0.76 1.787-1.195 3.492-1.425 1.733-0.233 4.011-0.235 7.182-0.235s5.449 0.002 7.182 0.235c1.705 0.229 2.732 0.665 3.492 1.425s1.195 1.787 1.425 3.492c0.233 1.733 0.235 4.011 0.235 7.182s-0.002 5.449-0.235 7.182c-0.229 1.705-0.665 2.732-1.425 3.492s-1.787 1.195-3.492 1.425c-1.733 0.233-4.011 0.235-7.182 0.235s-5.449-0.002-7.182-0.235c-1.705-0.229-2.732-0.665-3.492-1.425s-1.195-1.787-1.425-3.492c-0.233-1.733-0.235-4.011-0.235-7.182s0.002-5.449 0.235-7.182c0.229-1.705 0.665-2.732 1.425-3.492z"></path>
</symbol>
<symbol id="icon-add-to-list-added" viewBox="0 0 32 32">
<path fill="#EA8F07" style="fill: var(--color1, #1c274c)" d="M17 12c0-0.552-0.448-1-1-1s-1 0.448-1 1v3h-3c-0.552 0-1 0.448-1 1s0.448 1 1 1h3v3c0 0.552 0.448 1 1 1s1-0.448 1-1v-3h3c0.552 0 1-0.448 1-1s-0.448-1-1-1h-3v-3z"></path>
<path fill="#EA8F07" style="fill: var(--color1, #1c274c)" d="M16.077 1.667h-0.153c-3.078 0-5.49-0-7.372 0.253-1.926 0.259-3.446 0.799-4.639 1.993s-1.734 2.713-1.993 4.639c-0.253 1.882-0.253 4.294-0.253 7.372v0.153c0 3.078-0 5.49 0.253 7.372 0.259 1.926 0.799 3.446 1.993 4.639s2.713 1.733 4.639 1.993c1.882 0.253 4.294 0.253 7.372 0.253h0.153c3.078 0 5.49 0 7.372-0.253 1.926-0.259 3.446-0.799 4.639-1.993s1.733-2.713 1.993-4.639c0.253-1.882 0.253-4.294 0.253-7.372v-0.153c0-3.078 0-5.49-0.253-7.372-0.259-1.926-0.799-3.446-1.993-4.639s-2.713-1.734-4.639-1.993c-1.882-0.253-4.294-0.253-7.372-0.253zM5.326 5.326c0.76-0.76 1.787-1.195 3.492-1.425 1.733-0.233 4.011-0.235 7.182-0.235s5.449 0.002 7.182 0.235c1.705 0.229 2.732 0.665 3.492 1.425s1.195 1.787 1.425 3.492c0.233 1.733 0.235 4.011 0.235 7.182s-0.002 5.449-0.235 7.182c-0.229 1.705-0.665 2.732-1.425 3.492s-1.787 1.195-3.492 1.425c-1.733 0.233-4.011 0.235-7.182 0.235s-5.449-0.002-7.182-0.235c-1.705-0.229-2.732-0.665-3.492-1.425s-1.195-1.787-1.425-3.492c-0.233-1.733-0.235-4.011-0.235-7.182s0.002-5.449 0.235-7.182c0.229-1.705 0.665-2.732 1.425-3.492z"></path>
</symbol>
</defs>
</svg>
